<?xml version="1.0" encoding="utf-8"?>
<!-- Generator: Adobe Illustrator 18.0.0, SVG Export Plug-In . SVG Version: 6.00 Build 0)  -->
<!DOCTYPE svg PUBLIC "-//W3C//DTD SVG 1.1//EN" "http://www.w3.org/Graphics/SVG/1.1/DTD/svg11.dtd">
<svg version="1.1" id="Слой_2" xmlns="http://www.w3.org/2000/svg" xmlns:xlink="http://www.w3.org/1999/xlink" x="0px" y="0px"
	 viewBox="17 0 989 850" enable-background="new 17 0 989 850" xml:space="preserve">
<path fill="#FF8C00"    d="M983.3,108c-8.1-11.3-23.3-20.7-33.4-29.1
	c0,0-5.3-23-34.8-46.8c-16.1-13-34.6-22.4-54.6-26c-10.5-1.9-43.1-4.9-65,3.5c-18.8,7.3-39.4,18.2-55.2,31.8
	c-15.7,13.5-62.9,78.8-104.3,153.4c-11.1,20-32.4,33.8-48.2,50c-15.4,15.8-71.9,89.1-87.4,106.8c-8.3,9.4-45.4,56.7-92.9,100.7
	C362.6,494.1,322.2,553,321,558c-0.7,2.9-3.7,10.4,2.1,17.4c3.5-2.1,5.3-6.7,8.4-9.6c-0.9,3.6-2.2,10.6,1.3,13.4
	c-2.4,6.9-49.5,52.7-55.5,60.7c-4.9,6.6-13.7,14-13.6,22.5c0,0-69.6,54.4-214.2,147.5c-8.7,5.6-17.1,13-22.6,22.1
	c-4.1,6.8-1.3,8.5,5.5,10.3c4.9,1.2,10.9,1.1,15.1-2.4c-0.2,10.8,20.9-2.5,24-4.5c4.6-2.9,174.6-109.2,194.5-119.9
	c7.9-4.2,15.7-8.7,23.8-12.6c5.5,8.1,19.6,4.6,26.9,1.9c8.5-3.2,42.5-20.1,51-23.7c9.1-3.8,22-3,30.4-7.9l3.4-2.1
	c-0.7,0.6-5.6,6.4,2.2,4.9c4.2-0.8,8.2-3.5,11.7-5.7c-8.1,8.2,10.1,3.5,13.7,2.2c6.7-2.4,14-6.6,20.3-9.8c-0.7,0.9-2,4-2.4,4.8
	c10.9,6.1,27.3-5.2,36.1-11.4c-1.9,3.4,1.5,3.9,3.8,2.3c-0.8,1.2-0.2,2.1-0.5,3.3c6.1,0.4,11.6-2,16.8-4.8c3-1.6,6-2.8,8.9-4.1
	l1.8,3.5c-3.9,3.8-9.9,6.5-13.3,9.7c3.6,2.2,12.1-1.4,16.1-4.1l0.1,0.1c-3.1,3-5.5,8-5,11.8c2.8-1.8,6.1-3.3,9.6-4.6
	c4.4,6.3,25.1,37.7,29.2,46.3c2.1,4.5,4.1,8.9,6.2,13.4c1,2.1,2.5,3.9,3.3,6c0.5,1.5,0.7,4.9,2.8,5.4c0.2,0.7,0.3,1.3,0.4,2
	c-1.8,0.4-5-2.1-7-2.4c-2.6-0.4-13.4,0.7-14.1,10.6c-0.2,3.2,0.3,5.3,1.9,8c0.5,0.8,1,1.8,1.8,2.5c0.8,0.7,2.4,1,3,1.6
	c1.6,1.5,1,6.4,1.1,8.4c0.2,2.8,0.8,5.2,1.8,7.7c0.6,1.4,1.2,3.2,2.2,4.3c0-4.4-0.5-5.1-0.2-8.4c0.4-3.6,1.5-8.6,1.8-12.3
	c3.7-0.3,5.1-0.3,7.5-3.2c2.6,2.3,7,2.1,10.2,1.8c3.7-0.4,15.3-2,16.9-1.1c2.2,1.3,5.2,2,7.5,2.7c2.6,0.9,28.2,3.4,29.6,3.3
	c1.6-0.1,3.1-1.7,4.6-1.7c2.8,0,4.2,4,6.3,4.9c2.4,1,5.5-1.1,7.4-2.2c0.7-0.4,1-1,1.8-1.3c2.1,3.7-0.8,8.6-1.9,12
	c3.9-4,9.4-9.6,9.8-15.2c0.8,0.4,1.3,0,1.8,0c0.4,0,1.1,0.6,1.4,0.6c1.2,0,2.8-0.1,4.2-0.3c1.1-0.1,2.2-0.3,3.2-0.5
	c-0.8,1.4-1.6,2.8-2.1,4.4c-3.8,10.5-2.4,19.6,3.7,28.8c1.2,1.8,2.7,2,2.8,4.3c0.4,0.3,0.8,0.3,1.2,0c-0.4-3.7-1.6-7.9-2-11.9
	c-0.4-3.9,0.9-7.2,2.1-11.2c2.7-8.7,7.9-15.5,17.6-14.8c-0.4,4.9,3,10.9,7.9,11.9c7.9,1.7,6.3-5.5,12-7.1c2.3-0.6,4.9,1.2,7.1,1.5
	c3,0.3,5.7-0.3,8.5,0.7c5,1.7,8.8,4.6,14.2,5.6c10.2,2,13.8,3.2,24,1.5c9.1-1.6,22.6,2.9,30.5,6.9c2.9,1.4,26.7,9.2,32.4,8.6
	c5.8-0.6,14.3,4.2,19.4,3.5c7.8-1.1,9.3-4.3,14.5-5.1c5.4-0.8,8.8,0.2,14.2-0.7c5.7-1,11.5,1.6,17.3,1.6c6.1,0,12.2-2.1,14.8-7.5
	c2.3-4.8-0.4-11.9,4.6-13.7c4.9-1.8,9.8-2.9,15.3-1.3c3.5,1,11,15.1,10.1,19.6c6.3-32.9-33.4-33.7-39.7-18.5
	c-6,0.6-11.4,3.5-17.5,4.3c-6.7,1-14,0.5-21.1-0.1c0.4-4.3-6.8-19.7-12.3-15.6c-3.2-1.8-5.1-4-9-4.1c-3.7-0.1-6.4,1-9,3.7
	c-3.1,3.2-3.6,4.1-8.6,4.1c-4.3,0-7.7-0.3-11.5-1.3c-5.9-1.5-16.4-1.2-20.2-7.4c-1.9-3.2-1-6.2-3.5-9.2c-2.5-3-5.9-3.8-9.2-2.7
	c-0.9-5.8-5.6-5.9-9.3-7h-5.7c-4.3-1-75.4-48.8-107.6-74.8c1.8-1,3.5-2.3,5-3.8c4.4-4.6,9.6-8.6,13.8-13.1
	c7.4-8.1,15.9-18.5,25.1-24.1c0.3,6-7.4,12.5-11.9,16c-4.7,3.6-7.4,10.4-11.6,14.7c16.8-10.4,29.7-26.7,45-39.7
	c7.5-6.4,52.2-44.3,84.1-92.5c5.2-7.9,10.9-15.7,15.9-23.6c11.6-18.3,22.7-37.4,33.2-56.4c10.9-19.7,19.2-40.1,28.3-60.7
	c4.4-10.1,7.6-20.5,10.2-31.1c5.1-21.2,2.9-56.8,2-68.5c-0.4-5.2-6.6-41.8-7.8-46.6c-1.3-5-0.2-11.3,0.7-16.3
	c2-10.7,2.9-15.2,7.8-24.7c4.6-9.1,14.1-18.5,22.1-24.5c3.4-2.6,25.2-19.3,25.2-19.3c7.7,4.5,43.2-0.7,48-2c4.7-1.2,10.5-1.7,14.9,1
	C1003,131.1,990.1,117.5,983.3,108z M742.5,752.7c-4.5,1.4-9.3-2.9-13.3-4.1c-5-1.5-10.3-2.9-15.6-2.8c-2.5,0-4.5,1.4-6.9,1.6
	c-2.4,0.2-4.4-0.6-7.2-0.9c-5-0.4-8.4,1.1-12.5,2.2c-1.4-1.3-3.2-2.3-4.4-2.6c-4.8-1.1-11.4-1.5-16.3-0.8c-5.3,0.8-10.8,4.1-16.2,4
	c-2.6-0.1-5.6-0.6-8.5-0.4c-2.6,0.2-4.6,1.5-7,2.5c-4.8,1.9-12.4,0.1-16.4-3.1c-4.2-3.4-8.2-6-13.7-6.9c-4.4-0.7-9.6-1.4-14.1-1.4
	c0.7-2.2-0.7-4.4-2.1-6.3c-1.6-2.2-3.9-2.5-5.5-4.2c-1.7-1.9-2.1-4.7-4.2-6.4c-1.9-1.5-4.5-1.8-6.6-3.3c-3.6-2.5-6.8-8.2-8.9-12
	c-1.8-3.3-16.2-29-24.6-44.4c4.7-1.5,9.5-2.9,14.1-4.5c4.7-1.7,11.6-4.1,16-6.6c-1.5,1.7-1.3,4.2-1,6.3c2.3,0,4.4-1.7,6-3.3
	c-2.4,5.3-3.2,11.1-6.7,15.3c5,0.1,13.4-10.1,16.9-13.8c-1.6,3.3-2.5,5.5-4.8,8.4c-1.7,2.2-4.2,4.3-5.6,6.8c3.4,0.4,7.7-4,10.1-6.3
	c-2.1,3.1-4.6,5.7-6,9.1c3.1-0.5,7.3-3.2,9.8-5.5c2.9-2.6,5.1-7.9,9-8.4c0.5,3.5-3.8,7.8-6,10.6c4.4-0.7,10.6-6.4,13.2-9.7
	c-2,5.2-5.7,8.8-9,13.2c7.3-0.5,14.4-5.4,21.1-8.9C639.6,680.6,711.8,720.9,742.5,752.7z"/>
</svg>
