<?xml version="1.0" encoding="utf-8"?>
<!-- Generator: Adobe Illustrator 18.0.0, SVG Export Plug-In . SVG Version: 6.00 Build 0)  -->
<!DOCTYPE svg PUBLIC "-//W3C//DTD SVG 1.1//EN" "http://www.w3.org/Graphics/SVG/1.1/DTD/svg11.dtd">
<svg version="1.1" id="Слой_2" xmlns="http://www.w3.org/2000/svg" xmlns:xlink="http://www.w3.org/1999/xlink" x="0px" y="0px"
	 viewBox="112 0 1361 1200" enable-background="new 112 0 1361 1200" xml:space="preserve">
<path fill="#000000"    d="M1410.2,243.5c0.8-10.6,1.3-18.9-1.3-29.1
	c-1.8-7.6-2.4-19.2-6.8-25.6c28.1-9.6,50.5-24.3,64.8-37.1c-5.6-2.7-39.2-19.6-67.6-23.3l1.3-4.8c4.8-40.9-27-63.1-56.9-82.6
	c-33.3-21.7-93.5-61.6-213.3-9.7c-32.5,14-58.3,48.7-74.7,79.1c-17.8,33-26.1,68.2-47.4,99.2c-20.5,29.8-44,60.3-72.4,82.9
	c-67.9,54.1-128.6,107-182.8,175.1c-6.8,8.6-135.8,172.8-145.6,186.1c-11.3,15.5-46.9,73.7-52.9,80.2c-5.9,6.5-80.5,81.5-83.6,89.6
	c-5.8,15.4,9.9,2,14.8-2.1c5.9-5.1,11.7-10.9,18.6-13.7c11.3,9.2-84.8,55.8-185.4,145.4c-144.6,128.6-145,158-157.7,174.1
	c-11.4,14.4-23.7,29.1-33.2,44.5c-2.5,4.2-12.8,16.5-8.3,19.8c5.5,3.8,20.5-3.2,25.4-4.9c17.9-6.2,41.2-35,41.2-35s16-4.7,23.9-10.9
	c7.1-5.6,49-44.3,61.8-57.2c12.3-12.3,66.4-62.5,81.3-75.7c29.4-25.8,61.7-44.2,93.2-67.2c13.7-10,90.8-65.1,90.8-65.1
	c-1-2.4,14.5-4.9,18.5-5.8c7.5-1.7,15.1-2.7,22.7-4c7.6-1.1,14.1-4.8,21.9-7.5c5.8-2.1,14.1-8,20.2-8.2c-4.9,5.4-11.7,14.1-13,21.3
	c5.2-3.8,12-2.3,18.1-4.7c5.4-2.1,8.3-6.4,14.7-5.5c-1.3,2.1-3,4.5-4.2,6.8c6.5-1.1,12.6-7.6,18.8-10.6c-2.8,3.5-5.6,8.5-7.9,12.7
	c7.2-7.3,14.8-16.8,24.8-20c-3.4,5.5-8.2,12-10.6,17.8c6.4-1.4,13.8-8,19.1-11.9c-0.4,1.1-0.3,3.2-0.8,4.7c3.5-2.1,7.1-4.9,10.9-6.6
	c-0.8,1.4-1.4,3.8-2.4,5.2c6.6-5.9,13.8-7.9,21.7-11.4c5.8-2.7,11.4-7.3,16.8-11c-1.1,4.2-2.5,8.5-3.5,12.7
	c5.8-6.4,12.3-20.2,21.5-21.2c-1,1.6-1.6,3.4-2.7,4.8c1.1-1.4,0.3,4.7-1.6,9.2c6.5-5.2,14.7-14.5,23.7-12.7
	c-2.4,5.4-6.1,10.9-5.4,16.7c4.4-3,9.7-8.2,12.6-13c-1.1,2.8,2.7,7.6,1.7,10.6c6.2-7.9,11.4-9.6,16.9-17.8c0.7,7.6-5.9,14-4.7,21
	c1.7-1.7,3.7-3.1,4.8-5.2c-1.4,2.1-1.1,4.2-1.1,6.8c3.2-0.7,6.1-3.8,9.3-4.5c0.8,4.8-3.5,7.3-3.2,11.9c7.8-3.4,16-8.8,22.9-14
	c-2.7,5.4-5.5,14.1-4.7,20c6.8-4,12-27.4,18.9-27.5c1.3,8.3-2.7,19.9,2.7,27.2c0.7-5.9,4.4-11.9,4.8-17.6c0.6-5.4-0.4-11.9,3.2-15.7
	c1.8,6.1-3.1,13,1.1,19.2c5.8,8.3,5.4-4,7.3-9.3c0,1.4,1,3.8,1.1,4.4c3.8-4.4,2-18.4,9.9-16.7c-1.1,3.8-2.4,7.1-2.4,11.4
	c2.1-1.8,3.8-4.1,5.5-6.4c0.4,1.7,0.8,3.4,1.3,4.4c1.1,4.4,4.1,6.6,7.5,9.5c3.2,2.7,6.2,5.8,9,9c3,3.4,4.2,7.8,7.2,11
	c5.6,5.9,15.5,8.2,22.9,10.9c9.7,3.7,16.9,9.9,24.1,17.2c7.1,7.2,16.2,12.1,23.7,18.9c8,7.3,17.6,12.8,26,19.5
	c15.5,12.4,30.9,26.7,44.6,41.2c1.7,1.8,3.5,3.5,4.9,5.6c-2.3,3.5,3.5,8,5.9,10.3c3.4,3.1,5.9,5.8,8.6,9.5c-6.5,0-12.8,9-18.8,11.2
	c-7.6,2.7-14.8,3.5-22.3,6.4c-1.7,0.6-3.1,1.3-4.8,2c-1.4,0.6-3.2,2-4.7,2.5c-3.8,1.4-6.5-2.1-9.7,1.1c-3,3.1-1.6,7.6-2.4,11.2
	c-0.6,2.4-5.4,8.5-1,11.4c-5.8,9.5-4.2,25.1-0.8,35.3c3.8,11,11,19.8,23.3,20c-4.7-3.8-8.6-13-9-17.6c-0.6-7.2-0.8-13,2-19.3
	c1-2.4,2.4-4.9,4.7-6.8c3.1-2.5,5.8-0.6,9.7-1.1c7.2-1.1,10.2-5.5,11.7-12.4c8.2-1.7,16.2-6.2,23.7-10.3c6.4-3.4,17.5-9.6,24.6-8.5
	c0.8,4.1,5.8,7.3,8.5,10.3c3.1,3.4,5.5,7.3,8.6,10.7c5.9,6.5,9.9,14.3,15.5,20.8c2.8,3.1,6.2,5.5,9.2,8.5c3,3.1,4.4,7.3,7.2,10.9
	c3,3.7,5.4,7.9,7.6,12c2.5,4.7,4.2,6.1,3.4,11.4c-1,6.2-3.7,16.7,4.2,19.6c0.1,4,0.6,12.6,5.5,14c-3.8,3.2-1.7,9.9-29.6,8.9l9.7,5.5
	c10.4,4.1,21.2-1.8,28.4-9c6.6,21.7-21.2,29.2-36.6,24.7c12.3,8.5,31.1,10.9,41.9-1.3c4.9-5.5,6.8-11,8-18.1
	c0.7-3.8,1.4-7.8,1.7-11.6c0.3-4.4-0.8-8.2-0.4-12.4c2.5-0.6,3.8-4.4,2.8-6.6c-0.4-1-2.1-1.4-2.4-2.4c-0.7-1.7,0-2.1,0.1-3.8
	c0.3-4.9-1.3-10-2.1-14.8c6.9,4.4,17.9,2,24.1-2.1c7.3-4.8,7.8-15.5,7.8-23.7c0-8.8-3.2-16.2-9.5-22.6c-6.9-6.9-16-10.2-23.6-15.8
	c-2.7-2-5.4-3.8-8-5.8c-1.4-1-2.8-2.1-4.1-3.1c-2.1-1.8-1.7-2.4-2.5-4.2c-2.8-5.9-8.8-11.6-14.5-14.7c-11.6-6.4-24.4-11.6-34.3-21
	c5.6-1-2.1-7.3-3.8-8.3c-3.4-2-8.3-3.2-10.7-6.4c-1.4-1.8-1.1-3-3.1-4.5c-1.7-1.4-4.4-1.7-5.9-3.2c-1.4-1.4-1.4-3-3.7-4.2
	c-1.8-1.1-4.1-1.6-6.2-2.3c-7.6-2.5-14.5-8.2-21.3-13.1c-7.8-5.6-15.8-10.7-23.3-17.2c-3.7-3.2-6.9-7.1-10.4-10.2
	c-3.2-2.7-7.2-4.7-10.7-7.5c-8.3-6.4-17.5-12.3-25-19.6c-10.9-10.9-22.4-20.9-33.5-31.2c2.1-0.3,4.2-0.6,6.2-1
	c4.1-0.8,11.4-4.5,14.4-2.7c-2,1-3.5,2.3-5.5,2.8c5.5,0.3,10.4-0.7,15.4-2.4c4.1-1.4,7.5-4.9,11.7-4.7c-2,1.3-3.4,3.1-5.2,4.4
	c8.9,2.5,18.9-8,27.2-9.2c-1.3,1.7-3.2,4-4.5,5.6c4.1-0.3,8.2-0.8,12.7-1c-1.4,1-2.7,2.7-4.1,3.5c6.9-1.7,16.1-8,23.4-8.3
	c-1.7,2.7-4.9,4.1-6.6,7.1c6.6,1.1,11.4-6.1,17.6-5.5c-2.1,1.7-4.2,3.1-6.5,4.4c14.3-4.1,30.4-9.7,42.6-19.3c-1.7,1.4-2.1,3-3.2,4.5
	c1.1-0.4,2.1-0.4,3.4-0.8c-4,3.7-9.2,6.6-12.4,10.9c8.3-6.1,18.6-10.9,27.2-17.6c-2.4,4.2-6.1,8-8.2,12.4
	c6.5-4.5,12.7-9.5,18.9-14.4c3.8-3.1,7.6-6.4,11.3-9.6c15.4-1.6,30.6-4.4,46.4-3.4c11.4,0.7,23.2,0.7,34.6,1.8
	c4.9,0.4,10.2-0.3,15.1,0c4.9,0.3,8.3,4.1,3.8,8.6c-2.7,2.7-7.5,4.4-10.6,6.9c-3,2.5-5.5,5.5-8.3,8.2c-3.5,3.2-7.8,7.6-12.1,9.7
	c-3.8,1.8-11.3,1.6-11.6,7.6c-8.5,1.7-9.5,11.3-5.9,17.6c2.1,3.8,2.5,5.2,1.8,9.7c-0.6,3.8-1,7.9-0.4,12c2.5,21,20.2,28.1,28.2,30.9
	c-5.1-7.6-9.2-13.1-12.3-18.4c-5.8-10-4.1-11.9-0.3-17.2c3.5,0.3,10.6,3.4,13.3-0.7c2.4-3.7,0.4-10.2,2.3-14.1
	c1.7-3.7,7.1-6.5,10-9.3c4-3.8,8.3-6.9,11.9-11c3-3.5,7.2-9.7,11.4-11.6c2.1-1,5.5-0.6,7.9-0.8c3-0.4,5.2-1,8-2.1
	c4.2-1.8,8.6-3.4,12.7-5.5c5.1-2.7,6.5,0.7,11,3c6.1,3.1,12.1,4.2,19.2,4.5c3.8,13.1,23.4,14.3,33.3,17.4c2.8,1,5.6,0.8,7.8,3.1
	c2,2.1,3.4,6.4,4.4,8.9c1.3,3.5,1.3,5.5,4.8,7.3c4.2,2.1,6.5-0.1,10.2,0.1c2.1,4.4,4,11.4,2.1,16.4c-1.7,4.5-10,9.7-14.7,10.3
	c2.7,1.3,13.6,3.1,16.5,1.8c4.4-1.8,8.8-5.1,10.3-9.7c1.7,0.6,4.7,1,6.4,0c1.1,4.9,2.4,8.8,3.1,13.8c1.8,13-2.7,25.7-21.6,31.5
	c8.6,2.1,14.7,0.4,21.6-3.7c6.6-3.8,10.6-9.2,13.8-16c7.1-14.7-0.1-27.7-6.5-40.8c8.6-3.2,9.9-14.4,7.6-21.7
	c-2.8-9.5-7.5-16-13-23.9c-4.7-6.8-11.9-12.3-18.4-17.6c-3.8-3.1-8.5-6.2-11.7-10c-2.5-3-4.8-5.6-8.2-7.5c-3.8-2.3-7.1-4.5-10.6-6.9
	c-4.1-3-8.6-3.4-13.1-5.5c-4.5-2-8.6-4.7-13.3-6.2c-4.5-1.6-9.7-2.3-14.5-3.5c-10-2.5-20.9-0.7-30.8-2.5c-4.4-0.8-8.3-2.7-12.7-3.5
	c-5.1-1-8.8-1-14,0c-4,0.8-7.8,5.8-12.1,5.8c-3.1,0-42.2,2.4-67.5,4.1c11.9-9.5,24.6-17.1,35.9-27c13-11.4,117.5-91.8,197.4-244.2
	c17.5-33.5,29.6-68.3,32.6-105.3c3.2-39.5-7.2-73-13.3-109C1405.7,280.7,1408.6,262.9,1410.2,243.5z M1171.2,1078.2
	c1.6,3.5,4.5,5.4,8.5,4.8c3.7-0.4,4.1-3.5,6.6-5.8c4.4,10.3-8.2,23-18.6,22.7c-0.1-0.6-0.3-1.1-0.3-1.7c-1-5.8-1.4-12-2.8-17.6
	c-1.4-5.6-1.8-11.7-2.4-17.5C1169.1,1064.8,1169.1,1073.2,1171.2,1078.2z"/>
</svg>
